<mxfile host="app.diagrams.net" modified="2024-03-29T14:37:54.961Z" agent="Mozilla/5.0 (X11; Linux x86_64) AppleWebKit/537.36 (KHTML, like Gecko) Chrome/121.0.0.0 Safari/537.36 Edg/121.0.0.0" etag="NuYI2_LwPNLoDaidztby" version="24.2.0" type="github">
  <diagram name="Page-1" id="StgHWz4NghMafxSv1uW0">
    <mxGraphModel dx="1386" dy="2999" grid="1" gridSize="10" guides="1" tooltips="1" connect="1" arrows="1" fold="1" page="1" pageScale="1" pageWidth="850" pageHeight="1100" math="0" shadow="0">
      <root>
        <mxCell id="0" />
        <mxCell id="1" parent="0" />
        <mxCell id="T2EJ2uYSbOceFDYWCZ22-41" value="" style="edgeStyle=orthogonalEdgeStyle;rounded=0;orthogonalLoop=1;jettySize=auto;html=1;" parent="1" source="T2EJ2uYSbOceFDYWCZ22-2" target="T2EJ2uYSbOceFDYWCZ22-40" edge="1">
          <mxGeometry relative="1" as="geometry" />
        </mxCell>
        <mxCell id="d3bOrSOvgRTrkonS77Jh-10" value="" style="edgeStyle=orthogonalEdgeStyle;rounded=0;orthogonalLoop=1;jettySize=auto;html=1;" edge="1" parent="1" source="T2EJ2uYSbOceFDYWCZ22-2" target="d3bOrSOvgRTrkonS77Jh-9">
          <mxGeometry relative="1" as="geometry" />
        </mxCell>
        <mxCell id="T2EJ2uYSbOceFDYWCZ22-2" value="&lt;span style=&quot;font-size: 18px;&quot;&gt;مشتری&lt;/span&gt;" style="rounded=1;whiteSpace=wrap;html=1;" parent="1" vertex="1">
          <mxGeometry x="110" y="-940" width="120" height="60" as="geometry" />
        </mxCell>
        <mxCell id="T2EJ2uYSbOceFDYWCZ22-3" style="edgeStyle=orthogonalEdgeStyle;rounded=0;orthogonalLoop=1;jettySize=auto;html=1;entryX=0.75;entryY=0;entryDx=0;entryDy=0;" parent="1" source="T2EJ2uYSbOceFDYWCZ22-4" target="T2EJ2uYSbOceFDYWCZ22-2" edge="1">
          <mxGeometry relative="1" as="geometry" />
        </mxCell>
        <mxCell id="T2EJ2uYSbOceFDYWCZ22-4" value="نام" style="ellipse;whiteSpace=wrap;html=1;aspect=fixed;" parent="1" vertex="1">
          <mxGeometry x="240" y="-1027.5" width="52.5" height="52.5" as="geometry" />
        </mxCell>
        <mxCell id="T2EJ2uYSbOceFDYWCZ22-5" value="کد&amp;nbsp;&lt;div&gt;ملی&lt;/div&gt;" style="ellipse;whiteSpace=wrap;html=1;aspect=fixed;" parent="1" vertex="1">
          <mxGeometry x="60" y="-1005" width="50" height="50" as="geometry" />
        </mxCell>
        <mxCell id="T2EJ2uYSbOceFDYWCZ22-6" style="edgeStyle=orthogonalEdgeStyle;rounded=0;orthogonalLoop=1;jettySize=auto;html=1;entryX=0.25;entryY=0;entryDx=0;entryDy=0;" parent="1" source="T2EJ2uYSbOceFDYWCZ22-7" target="T2EJ2uYSbOceFDYWCZ22-2" edge="1">
          <mxGeometry relative="1" as="geometry" />
        </mxCell>
        <mxCell id="T2EJ2uYSbOceFDYWCZ22-7" value="کد&lt;div&gt;ملی&lt;/div&gt;" style="ellipse;whiteSpace=wrap;html=1;aspect=fixed;" parent="1" vertex="1">
          <mxGeometry x="120" y="-1045" width="60" height="60" as="geometry" />
        </mxCell>
        <mxCell id="T2EJ2uYSbOceFDYWCZ22-8" style="edgeStyle=orthogonalEdgeStyle;rounded=0;orthogonalLoop=1;jettySize=auto;html=1;entryX=0;entryY=0.5;entryDx=0;entryDy=0;" parent="1" source="T2EJ2uYSbOceFDYWCZ22-5" target="T2EJ2uYSbOceFDYWCZ22-2" edge="1">
          <mxGeometry relative="1" as="geometry" />
        </mxCell>
        <mxCell id="T2EJ2uYSbOceFDYWCZ22-44" value="" style="edgeStyle=orthogonalEdgeStyle;rounded=0;orthogonalLoop=1;jettySize=auto;html=1;" parent="1" source="T2EJ2uYSbOceFDYWCZ22-12" target="T2EJ2uYSbOceFDYWCZ22-43" edge="1">
          <mxGeometry relative="1" as="geometry">
            <Array as="points">
              <mxPoint x="518" y="-900" />
              <mxPoint x="518" y="-840" />
            </Array>
          </mxGeometry>
        </mxCell>
        <mxCell id="d3bOrSOvgRTrkonS77Jh-13" style="edgeStyle=orthogonalEdgeStyle;rounded=0;orthogonalLoop=1;jettySize=auto;html=1;exitX=0;exitY=0.25;exitDx=0;exitDy=0;" edge="1" parent="1" source="T2EJ2uYSbOceFDYWCZ22-12" target="d3bOrSOvgRTrkonS77Jh-9">
          <mxGeometry relative="1" as="geometry" />
        </mxCell>
        <mxCell id="T2EJ2uYSbOceFDYWCZ22-12" value="&lt;span style=&quot;font-size: 18px;&quot;&gt;شعبه&lt;/span&gt;" style="rounded=1;whiteSpace=wrap;html=1;" parent="1" vertex="1">
          <mxGeometry x="555" y="-940" width="120" height="60" as="geometry" />
        </mxCell>
        <mxCell id="T2EJ2uYSbOceFDYWCZ22-13" style="edgeStyle=orthogonalEdgeStyle;rounded=0;orthogonalLoop=1;jettySize=auto;html=1;entryX=0.75;entryY=0;entryDx=0;entryDy=0;" parent="1" source="T2EJ2uYSbOceFDYWCZ22-14" target="T2EJ2uYSbOceFDYWCZ22-12" edge="1">
          <mxGeometry relative="1" as="geometry" />
        </mxCell>
        <mxCell id="T2EJ2uYSbOceFDYWCZ22-14" value="آدرس" style="ellipse;whiteSpace=wrap;html=1;aspect=fixed;" parent="1" vertex="1">
          <mxGeometry x="685" y="-1027.5" width="65" height="65" as="geometry" />
        </mxCell>
        <mxCell id="T2EJ2uYSbOceFDYWCZ22-16" style="edgeStyle=orthogonalEdgeStyle;rounded=0;orthogonalLoop=1;jettySize=auto;html=1;entryX=0.25;entryY=0;entryDx=0;entryDy=0;" parent="1" source="T2EJ2uYSbOceFDYWCZ22-17" target="T2EJ2uYSbOceFDYWCZ22-12" edge="1">
          <mxGeometry relative="1" as="geometry" />
        </mxCell>
        <mxCell id="T2EJ2uYSbOceFDYWCZ22-17" value="نام&amp;nbsp;&lt;div&gt;مدیر&lt;/div&gt;" style="ellipse;whiteSpace=wrap;html=1;aspect=fixed;" parent="1" vertex="1">
          <mxGeometry x="565" y="-1045" width="60" height="60" as="geometry" />
        </mxCell>
        <mxCell id="T2EJ2uYSbOceFDYWCZ22-19" style="edgeStyle=orthogonalEdgeStyle;rounded=0;orthogonalLoop=1;jettySize=auto;html=1;" parent="1" source="T2EJ2uYSbOceFDYWCZ22-20" target="T2EJ2uYSbOceFDYWCZ22-12" edge="1">
          <mxGeometry relative="1" as="geometry" />
        </mxCell>
        <mxCell id="T2EJ2uYSbOceFDYWCZ22-20" value="شناسه&amp;nbsp;&lt;div&gt;شعبه&lt;/div&gt;" style="ellipse;whiteSpace=wrap;html=1;aspect=fixed;" parent="1" vertex="1">
          <mxGeometry x="745" y="-957.5" width="65" height="65" as="geometry" />
        </mxCell>
        <mxCell id="T2EJ2uYSbOceFDYWCZ22-42" style="edgeStyle=orthogonalEdgeStyle;rounded=0;orthogonalLoop=1;jettySize=auto;html=1;" parent="1" source="T2EJ2uYSbOceFDYWCZ22-21" target="T2EJ2uYSbOceFDYWCZ22-40" edge="1">
          <mxGeometry relative="1" as="geometry" />
        </mxCell>
        <mxCell id="T2EJ2uYSbOceFDYWCZ22-45" style="edgeStyle=orthogonalEdgeStyle;rounded=0;orthogonalLoop=1;jettySize=auto;html=1;entryX=0.5;entryY=1;entryDx=0;entryDy=0;" parent="1" source="T2EJ2uYSbOceFDYWCZ22-21" target="T2EJ2uYSbOceFDYWCZ22-43" edge="1">
          <mxGeometry relative="1" as="geometry" />
        </mxCell>
        <mxCell id="T2EJ2uYSbOceFDYWCZ22-21" value="&lt;span style=&quot;font-size: 18px;&quot;&gt;گواهی نامه&amp;nbsp;&lt;/span&gt;" style="rounded=1;whiteSpace=wrap;html=1;" parent="1" vertex="1">
          <mxGeometry x="335" y="-730" width="120" height="60" as="geometry" />
        </mxCell>
        <mxCell id="T2EJ2uYSbOceFDYWCZ22-22" style="edgeStyle=orthogonalEdgeStyle;rounded=0;orthogonalLoop=1;jettySize=auto;html=1;entryX=0.75;entryY=0;entryDx=0;entryDy=0;" parent="1" source="T2EJ2uYSbOceFDYWCZ22-23" target="T2EJ2uYSbOceFDYWCZ22-21" edge="1">
          <mxGeometry relative="1" as="geometry" />
        </mxCell>
        <mxCell id="T2EJ2uYSbOceFDYWCZ22-23" value="تاریخ انقضا" style="ellipse;whiteSpace=wrap;html=1;aspect=fixed;" parent="1" vertex="1">
          <mxGeometry x="490" y="-790" width="65" height="65" as="geometry" />
        </mxCell>
        <mxCell id="T2EJ2uYSbOceFDYWCZ22-33" style="edgeStyle=orthogonalEdgeStyle;rounded=0;orthogonalLoop=1;jettySize=auto;html=1;entryX=0.75;entryY=1;entryDx=0;entryDy=0;" parent="1" source="T2EJ2uYSbOceFDYWCZ22-26" target="T2EJ2uYSbOceFDYWCZ22-21" edge="1">
          <mxGeometry relative="1" as="geometry" />
        </mxCell>
        <mxCell id="T2EJ2uYSbOceFDYWCZ22-26" value="نام&amp;nbsp;&lt;div&gt;دارنده&lt;/div&gt;" style="ellipse;whiteSpace=wrap;html=1;aspect=fixed;" parent="1" vertex="1">
          <mxGeometry x="495" y="-670" width="60" height="60" as="geometry" />
        </mxCell>
        <mxCell id="T2EJ2uYSbOceFDYWCZ22-38" style="edgeStyle=orthogonalEdgeStyle;rounded=0;orthogonalLoop=1;jettySize=auto;html=1;entryX=0.25;entryY=1;entryDx=0;entryDy=0;" parent="1" source="T2EJ2uYSbOceFDYWCZ22-34" target="T2EJ2uYSbOceFDYWCZ22-21" edge="1">
          <mxGeometry relative="1" as="geometry" />
        </mxCell>
        <mxCell id="T2EJ2uYSbOceFDYWCZ22-34" value="شماره&amp;nbsp;&lt;div&gt;مجوز&lt;/div&gt;" style="ellipse;whiteSpace=wrap;html=1;" parent="1" vertex="1">
          <mxGeometry x="240" y="-670" width="75" height="50" as="geometry" />
        </mxCell>
        <mxCell id="T2EJ2uYSbOceFDYWCZ22-39" style="edgeStyle=orthogonalEdgeStyle;rounded=0;orthogonalLoop=1;jettySize=auto;html=1;entryX=0.5;entryY=1;entryDx=0;entryDy=0;" parent="1" source="T2EJ2uYSbOceFDYWCZ22-36" target="T2EJ2uYSbOceFDYWCZ22-21" edge="1">
          <mxGeometry relative="1" as="geometry" />
        </mxCell>
        <mxCell id="T2EJ2uYSbOceFDYWCZ22-36" value="تحصیلات&amp;nbsp;&lt;div&gt;دارد؟&lt;/div&gt;" style="ellipse;whiteSpace=wrap;html=1;" parent="1" vertex="1">
          <mxGeometry x="345" y="-610" width="75" height="50" as="geometry" />
        </mxCell>
        <mxCell id="T2EJ2uYSbOceFDYWCZ22-40" value="صدور&amp;nbsp;&lt;div&gt;گواهی نامه&lt;/div&gt;" style="rhombus;whiteSpace=wrap;html=1;rounded=1;" parent="1" vertex="1">
          <mxGeometry x="120" y="-810" width="90" height="90" as="geometry" />
        </mxCell>
        <mxCell id="T2EJ2uYSbOceFDYWCZ22-43" value="صدوره از&amp;nbsp;&lt;div&gt;کدام شعبه&lt;/div&gt;" style="rhombus;whiteSpace=wrap;html=1;rounded=1;" parent="1" vertex="1">
          <mxGeometry x="400" y="-880" width="80" height="80" as="geometry" />
        </mxCell>
        <mxCell id="d3bOrSOvgRTrkonS77Jh-15" style="edgeStyle=orthogonalEdgeStyle;rounded=0;orthogonalLoop=1;jettySize=auto;html=1;entryX=0.5;entryY=0;entryDx=0;entryDy=0;" edge="1" parent="1" source="d3bOrSOvgRTrkonS77Jh-1" target="d3bOrSOvgRTrkonS77Jh-9">
          <mxGeometry relative="1" as="geometry" />
        </mxCell>
        <mxCell id="d3bOrSOvgRTrkonS77Jh-1" value="&lt;font style=&quot;font-size: 18px;&quot;&gt;وسیله نقلیه&lt;/font&gt;" style="rounded=1;whiteSpace=wrap;html=1;" vertex="1" parent="1">
          <mxGeometry x="360" y="-1120" width="120" height="60" as="geometry" />
        </mxCell>
        <mxCell id="d3bOrSOvgRTrkonS77Jh-6" style="edgeStyle=orthogonalEdgeStyle;rounded=0;orthogonalLoop=1;jettySize=auto;html=1;entryX=0.5;entryY=0;entryDx=0;entryDy=0;" edge="1" parent="1" source="d3bOrSOvgRTrkonS77Jh-3" target="d3bOrSOvgRTrkonS77Jh-1">
          <mxGeometry relative="1" as="geometry">
            <mxPoint x="402.5" y="-1190" as="targetPoint" />
          </mxGeometry>
        </mxCell>
        <mxCell id="d3bOrSOvgRTrkonS77Jh-3" value="نام وسیله" style="ellipse;whiteSpace=wrap;html=1;" vertex="1" parent="1">
          <mxGeometry x="300" y="-1220" width="75" height="50" as="geometry" />
        </mxCell>
        <mxCell id="d3bOrSOvgRTrkonS77Jh-14" style="edgeStyle=orthogonalEdgeStyle;rounded=0;orthogonalLoop=1;jettySize=auto;html=1;entryX=0.75;entryY=0;entryDx=0;entryDy=0;" edge="1" parent="1" source="d3bOrSOvgRTrkonS77Jh-7" target="d3bOrSOvgRTrkonS77Jh-1">
          <mxGeometry relative="1" as="geometry" />
        </mxCell>
        <mxCell id="d3bOrSOvgRTrkonS77Jh-7" value="کد وسیله" style="ellipse;whiteSpace=wrap;html=1;" vertex="1" parent="1">
          <mxGeometry x="470" y="-1220" width="75" height="50" as="geometry" />
        </mxCell>
        <mxCell id="d3bOrSOvgRTrkonS77Jh-9" value="امتحان دادن" style="rhombus;whiteSpace=wrap;html=1;rounded=1;" vertex="1" parent="1">
          <mxGeometry x="320" y="-950" width="90" height="90" as="geometry" />
        </mxCell>
        <mxCell id="d3bOrSOvgRTrkonS77Jh-19" style="edgeStyle=orthogonalEdgeStyle;rounded=0;orthogonalLoop=1;jettySize=auto;html=1;entryX=1;entryY=0;entryDx=0;entryDy=0;" edge="1" parent="1" source="d3bOrSOvgRTrkonS77Jh-18" target="d3bOrSOvgRTrkonS77Jh-9">
          <mxGeometry relative="1" as="geometry" />
        </mxCell>
        <mxCell id="d3bOrSOvgRTrkonS77Jh-18" value="تاریخ امتحان" style="ellipse;shape=doubleEllipse;whiteSpace=wrap;html=1;" vertex="1" parent="1">
          <mxGeometry x="445" y="-1005" width="100" height="60" as="geometry" />
        </mxCell>
      </root>
    </mxGraphModel>
  </diagram>
</mxfile>
